<svg xmlns="http://www.w3.org/2000/svg" width="33.803" height="25" viewBox="0 0 33.803 25"><defs><style>.a{fill:#fff;opacity:0.52;}</style></defs><path class="a" d="M-310.783,387.834a8.734,8.734,0,0,1,1.773,5.076c.072,1.2.081,2.4.087,3.6.011,2.041,0,4.082-.009,6.123,0,.965-.223,1.176-1.194,1.179-1.007,0-2.013.007-3.02,0-.746-.007-.98-.232-1-.977-.018-.6,0-1.2,0-1.832H-336.4c0,.568,0,1.123,0,1.678,0,.887-.242,1.13-1.112,1.133q-1.573.005-3.146,0c-.685,0-.961-.262-.951-.929q.077-5.43.173-10.861a6.494,6.494,0,0,1,1.139-3.457c.151-.232.292-.471.463-.749-.479-.161-.914-.3-1.346-.453-.778-.27-1.081-.7-.978-1.392a1.307,1.307,0,0,1,1.407-1.206c.7-.008,1.4-.006,2.1.018a1.165,1.165,0,0,0,1.132-.634q.926-1.546,1.9-3.063a4.691,4.691,0,0,1,4.187-2.269q6.124,0,12.247,0a4.81,4.81,0,0,1,4.268,2.293c.667,1.015,1.3,2.051,1.932,3.091a1.07,1.07,0,0,0,1,.552c.727,0,1.454,0,2.181.015a1.306,1.306,0,0,1,1.292.827,1.169,1.169,0,0,1-.7,1.7C-309.7,387.491-310.212,387.64-310.783,387.834Zm-14.45-.015v.019q5.532,0,11.065,0c.366,0,.8.071,1.018-.327s-.079-.722-.271-1.034c-.907-1.475-1.837-2.935-2.74-4.412a3.4,3.4,0,0,0-3.1-1.72q-6.015,0-12.029,0a3.44,3.44,0,0,0-3.135,1.743c-.859,1.406-1.735,2.8-2.593,4.208-.215.351-.557.739-.331,1.148s.741.38,1.177.38Zm10.935,6.944v0c.517,0,1.035.021,1.551,0a1.787,1.787,0,0,0,1.672-1.189,1.736,1.736,0,0,0-.354-1.941,1.705,1.705,0,0,0-1.935-.531q-1.467.5-2.916,1.042a1.308,1.308,0,0,0-.9,1.553,1.366,1.366,0,0,0,1.372,1.071C-315.3,394.773-314.8,394.763-314.3,394.763Zm-21.993,0c.475,0,.95,0,1.425,0a1.4,1.4,0,0,0,1.5-1.129,1.357,1.357,0,0,0-1-1.539c-.916-.338-1.841-.65-2.761-.976a1.736,1.736,0,0,0-1.981.488,1.752,1.752,0,0,0-.349,2.016,1.763,1.763,0,0,0,1.7,1.137C-337.269,394.776-336.78,394.763-336.291,394.764Zm11.021,4.211v0h3.855c.325,0,.639-.046.7-.439a3.883,3.883,0,0,0,.049-.875c-.044-.59-.234-.756-.825-.757q-3.791,0-7.582,0c-.623,0-.846.236-.862.87a3.766,3.766,0,0,0,.011.419c.053.623.209.777.841.781C-327.811,398.981-326.541,398.975-325.27,398.975Z" transform="translate(342.176 -378.82)"/></svg>