<svg xmlns="http://www.w3.org/2000/svg" xmlns:xlink="http://www.w3.org/1999/xlink" width="135.756" height="45.604" viewBox="0 0 135.756 45.604"><defs><style>.a{fill:#9e2146;}.b{isolation:isolate;}.c{clip-path:url(#a);}.d{clip-path:url(#b);}.e{clip-path:url(#c);}.f{clip-path:url(#d);}</style><clipPath id="a"><path class="a" d="M80.805,229.784s.1,3.795-4.993,4.294c0,0-3.944.7-4.743-2.9a11.044,11.044,0,0,0-5.958,3.279l.075.277.757,2.785,8.625-.038s17.067-3.737,18.165,14.338c0,0,.857,19.152-19.167,15.357a11.012,11.012,0,0,1-6.041-4.943H54.938a1.654,1.654,0,0,0-1.654,1.654v2.151a1.654,1.654,0,0,0,1.654,1.654H67.425s2.013.053,2.347,1.582v3.795s3.353,3.648,6.873,1.735a.159.159,0,0,0,.08-.11,4.817,4.817,0,0,1,4.731-3.971A4.99,4.99,0,0,1,86.1,274.12l6.042-3.645s-2.13-4.46.266-7.057a6.594,6.594,0,0,1,6.024-1.5s1.908-4,1.492-6.794a.808.808,0,0,0-.478-.615,5.857,5.857,0,0,1-3.685-5.572s-.243-2.545,2.826-3.969a.033.033,0,0,0,.021-.028c.016-.329.159-4.8-3.471-6.721a5.57,5.57,0,0,1-6.191-.749s-2.2-1-1.6-5.642a8.033,8.033,0,0,0-5.774-2.074q-.371,0-.767.026" transform="translate(-53.284 -229.758)"/></clipPath><clipPath id="b"><path class="a" d="M47.871,267.542H21.925a2.846,2.846,0,1,0,0,5.692H38.484s3.27,2.272.05,5.492L12.2,278.681a2.818,2.818,0,1,0-.005,5.637H37.136s3.695,2.2,0,5.691l3.045,2.347,2.4-2.7s6.415,3.4,12.282-3.345c0,0,4.094-6.191,1.548-12.033l-7.19,7.339s-4.693.25-5.242-5.492l7.489-7.789a6.041,6.041,0,0,0-3.241-.807q-.173,0-.354.008" transform="translate(-9.379 -267.534)"/></clipPath><clipPath id="c"><path class="a" d="M24.431,355.762a2.746,2.746,0,1,0,2.746-2.746,2.746,2.746,0,0,0-2.746,2.746" transform="translate(-24.431 -353.016)"/></clipPath><clipPath id="d"><path class="a" d="M7.7,267.563H1.971A1.971,1.971,0,0,0,0,269.534v1.75a1.971,1.971,0,0,0,1.971,1.971h5.98a1.971,1.971,0,0,0,1.971-1.971v-1.75a1.971,1.971,0,0,0-1.971-1.971Z" transform="translate(0 -267.563)"/></clipPath></defs><g class="b" transform="translate(0 -229.758)"><g transform="translate(14.041 229.758)"><path class="a" d="M80.805,229.784s.1,3.795-4.993,4.294c0,0-3.944.7-4.743-2.9a11.044,11.044,0,0,0-5.958,3.279l.075.277.757,2.785,8.625-.038s17.067-3.737,18.165,14.338c0,0,.857,19.152-19.167,15.357a11.012,11.012,0,0,1-6.041-4.943H54.938a1.654,1.654,0,0,0-1.654,1.654v2.151a1.654,1.654,0,0,0,1.654,1.654H67.425s2.013.053,2.347,1.582v3.795s3.353,3.648,6.873,1.735a.159.159,0,0,0,.08-.11,4.817,4.817,0,0,1,4.731-3.971A4.99,4.99,0,0,1,86.1,274.12l6.042-3.645s-2.13-4.46.266-7.057a6.594,6.594,0,0,1,6.024-1.5s1.908-4,1.492-6.794a.808.808,0,0,0-.478-.615,5.857,5.857,0,0,1-3.685-5.572s-.243-2.545,2.826-3.969a.033.033,0,0,0,.021-.028c.016-.329.159-4.8-3.471-6.721a5.57,5.57,0,0,1-6.191-.749s-2.2-1-1.6-5.642a8.033,8.033,0,0,0-5.774-2.074q-.371,0-.767.026" transform="translate(-53.284 -229.758)"/><g class="c"><g transform="translate(0 0)"><rect class="a" width="47.054" height="46.962"/></g></g></g><g transform="translate(2.471 239.712)"><path class="a" d="M47.871,267.542H21.925a2.846,2.846,0,1,0,0,5.692H38.484s3.27,2.272.05,5.492L12.2,278.681a2.818,2.818,0,1,0-.005,5.637H37.136s3.695,2.2,0,5.691l3.045,2.347,2.4-2.7s6.415,3.4,12.282-3.345c0,0,4.094-6.191,1.548-12.033l-7.19,7.339s-4.693.25-5.242-5.492l7.489-7.789a6.041,6.041,0,0,0-3.241-.807q-.173,0-.354.008" transform="translate(-9.379 -267.534)"/><g class="d"><g transform="translate(0)"><rect class="a" width="49.576" height="25.53"/></g></g></g><g transform="translate(6.438 262.238)"><path class="a" d="M24.431,355.762a2.746,2.746,0,1,0,2.746-2.746,2.746,2.746,0,0,0-2.746,2.746" transform="translate(-24.431 -353.016)"/><g class="e" transform="translate(0 0)"><g transform="translate(0 0)"><rect class="a" width="5.492" height="5.492"/></g></g></g><g transform="translate(0 239.72)"><path class="a" d="M7.7,267.563H1.971A1.971,1.971,0,0,0,0,269.534v1.75a1.971,1.971,0,0,0,1.971,1.971h5.98a1.971,1.971,0,0,0,1.971-1.971v-1.75a1.971,1.971,0,0,0-1.971-1.971Z" transform="translate(0 -267.563)"/><g class="f"><g transform="translate(0)"><rect class="a" width="9.922" height="5.692"/></g></g></g><g transform="translate(72.807 257.836)"><path class="a" d="M278.173,344.7a3.152,3.152,0,0,1-1.269-.758l.333-.655a3.191,3.191,0,0,0,1.16.706,4.233,4.233,0,0,0,1.493.27,2.731,2.731,0,0,0,1.62-.4,1.22,1.22,0,0,0,.54-1.028,1.029,1.029,0,0,0-.293-.77,1.979,1.979,0,0,0-.718-.442,11.567,11.567,0,0,0-1.183-.339,12.29,12.29,0,0,1-1.447-.442,2.369,2.369,0,0,1-.925-.649,1.724,1.724,0,0,1-.384-1.183,2,2,0,0,1,.322-1.109,2.2,2.2,0,0,1,.988-.8,4.044,4.044,0,0,1,1.654-.3,4.872,4.872,0,0,1,1.35.189,3.882,3.882,0,0,1,1.143.523l-.287.678a3.959,3.959,0,0,0-1.08-.5,4.036,4.036,0,0,0-1.126-.167,2.6,2.6,0,0,0-1.591.408,1.265,1.265,0,0,0-.534,1.051,1.047,1.047,0,0,0,.293.775,1.917,1.917,0,0,0,.735.448q.442.155,1.189.339a11.946,11.946,0,0,1,1.43.431,2.35,2.35,0,0,1,.925.643,1.7,1.7,0,0,1,.379,1.166,1.98,1.98,0,0,1-.328,1.109,2.2,2.2,0,0,1-1,.793,4.2,4.2,0,0,1-1.666.293,5.163,5.163,0,0,1-1.717-.287" transform="translate(-276.745 -336.68)"/><path class="a" d="M279.445,344.753a5.316,5.316,0,0,1-1.761-.294h0a3.29,3.29,0,0,1-1.321-.792l-.064-.067.457-.9.128.129A3.081,3.081,0,0,0,278,343.5a4.124,4.124,0,0,0,1.447.262,2.623,2.623,0,0,0,1.542-.371,1.086,1.086,0,0,0,.486-.922.894.894,0,0,0-.253-.676,1.854,1.854,0,0,0-.671-.413,11.482,11.482,0,0,0-1.169-.335,12.431,12.431,0,0,1-1.465-.448,2.507,2.507,0,0,1-.975-.684,1.86,1.86,0,0,1-.417-1.27,2.143,2.143,0,0,1,.343-1.18,2.331,2.331,0,0,1,1.045-.847,4.189,4.189,0,0,1,1.707-.311,5.027,5.027,0,0,1,1.386.195,4.033,4.033,0,0,1,1.182.541l.088.061-.391.922-.132-.087a3.848,3.848,0,0,0-1.044-.483,3.912,3.912,0,0,0-1.089-.161,2.486,2.486,0,0,0-1.51.381,1.13,1.13,0,0,0-.483.946.912.912,0,0,0,.255.682,1.792,1.792,0,0,0,.685.417c.29.1.686.214,1.177.335a12.086,12.086,0,0,1,1.446.436,2.492,2.492,0,0,1,.976.679,1.836,1.836,0,0,1,.412,1.253,2.116,2.116,0,0,1-.349,1.181,2.34,2.34,0,0,1-1.063.842A4.353,4.353,0,0,1,279.445,344.753Zm-2.826-1.2a3.15,3.15,0,0,0,1.152.659h0a5.048,5.048,0,0,0,1.674.279,4.092,4.092,0,0,0,1.613-.282,2.084,2.084,0,0,0,.947-.744,1.862,1.862,0,0,0,.306-1.037,1.584,1.584,0,0,0-.346-1.079,2.234,2.234,0,0,0-.874-.607,11.842,11.842,0,0,0-1.413-.426c-.5-.122-.9-.238-1.2-.342a2.059,2.059,0,0,1-.785-.48,1.179,1.179,0,0,1-.332-.868,1.4,1.4,0,0,1,.586-1.156,2.731,2.731,0,0,1,1.67-.435,4.185,4.185,0,0,1,1.163.172,4.091,4.091,0,0,1,.982.432l.184-.434a3.86,3.86,0,0,0-1.015-.445,4.758,4.758,0,0,0-1.314-.184,3.933,3.933,0,0,0-1.6.288,2.079,2.079,0,0,0-.931.749,1.883,1.883,0,0,0-.3,1.037,1.607,1.607,0,0,0,.352,1.1,2.249,2.249,0,0,0,.874.613,12.21,12.21,0,0,0,1.431.437,11.6,11.6,0,0,1,1.2.343,2.124,2.124,0,0,1,.765.472,1.159,1.159,0,0,1,.332.864,1.351,1.351,0,0,1-.593,1.134,2.868,2.868,0,0,1-1.7.422,4.388,4.388,0,0,1-1.539-.278,3.48,3.48,0,0,1-1.076-.615Z" transform="translate(-276.299 -336.311)"/></g><g transform="translate(72.488 257.572)"><path class="a" d="M278.173,344.7a3.152,3.152,0,0,1-1.269-.758l.333-.655a3.191,3.191,0,0,0,1.16.706,4.233,4.233,0,0,0,1.493.27,2.731,2.731,0,0,0,1.62-.4,1.22,1.22,0,0,0,.54-1.028,1.029,1.029,0,0,0-.293-.77,1.979,1.979,0,0,0-.718-.442,11.567,11.567,0,0,0-1.183-.339,12.29,12.29,0,0,1-1.447-.442,2.369,2.369,0,0,1-.925-.649,1.724,1.724,0,0,1-.384-1.183,2,2,0,0,1,.322-1.109,2.2,2.2,0,0,1,.988-.8,4.044,4.044,0,0,1,1.654-.3,4.872,4.872,0,0,1,1.35.189,3.882,3.882,0,0,1,1.143.523l-.287.678a3.959,3.959,0,0,0-1.08-.5,4.036,4.036,0,0,0-1.126-.167,2.6,2.6,0,0,0-1.591.408,1.265,1.265,0,0,0-.534,1.051,1.047,1.047,0,0,0,.293.775,1.917,1.917,0,0,0,.735.448q.442.155,1.189.339a11.946,11.946,0,0,1,1.43.431,2.35,2.35,0,0,1,.925.643,1.7,1.7,0,0,1,.379,1.166,1.98,1.98,0,0,1-.328,1.109,2.2,2.2,0,0,1-1,.793,4.2,4.2,0,0,1-1.666.293A5.163,5.163,0,0,1,278.173,344.7Z" transform="translate(-276.425 -336.416)"/><path class="a" d="M278.552,344.28a5.571,5.571,0,0,1-1.848-.309h0a3.548,3.548,0,0,1-1.425-.859l-.192-.2.706-1.389.385.385a2.815,2.815,0,0,0,1.019.616,3.855,3.855,0,0,0,1.355.245,2.38,2.38,0,0,0,1.386-.32.828.828,0,0,0,.378-.709.623.623,0,0,0-.174-.487,1.576,1.576,0,0,0-.577-.354,11.3,11.3,0,0,0-1.14-.326,12.758,12.758,0,0,1-1.5-.459,2.774,2.774,0,0,1-1.076-.755,2.112,2.112,0,0,1-.483-1.445,2.4,2.4,0,0,1,.384-1.323,2.594,2.594,0,0,1,1.159-.945,4.447,4.447,0,0,1,1.815-.334,5.29,5.29,0,0,1,1.459.2,4.294,4.294,0,0,1,1.259.577l.265.183-.6,1.412-.4-.262a3.588,3.588,0,0,0-.972-.45,3.669,3.669,0,0,0-1.016-.151,2.247,2.247,0,0,0-1.351.326.871.871,0,0,0-.379.737.656.656,0,0,0,.177.5,1.538,1.538,0,0,0,.587.355c.282.1.67.209,1.153.328a12.514,12.514,0,0,1,1.479.446,2.757,2.757,0,0,1,1.078.751,2.09,2.09,0,0,1,.478,1.427,2.379,2.379,0,0,1-.392,1.325,2.6,2.6,0,0,1-1.179.939A4.615,4.615,0,0,1,278.552,344.28Zm1.26-4.135.024.008a2.383,2.383,0,0,1,.859.531,1.412,1.412,0,0,1,.411,1.052,1.586,1.586,0,0,1-.394,1.066,1.416,1.416,0,0,0,.179-.22,1.579,1.579,0,0,0,.263-.892,1.316,1.316,0,0,0-.281-.9,1.945,1.945,0,0,0-.772-.536Q279.969,340.2,279.813,340.145Zm-3.128-3.438a1.469,1.469,0,0,0-.27.31,1.6,1.6,0,0,0-.259.895,1.337,1.337,0,0,0,.285.922,1.962,1.962,0,0,0,.773.543l.1.039a2.25,2.25,0,0,1-.7-.471,1.433,1.433,0,0,1-.408-1.054A1.644,1.644,0,0,1,276.685,336.707Z" transform="translate(-275.087 -335.311)"/></g><g transform="translate(79.308 257.905)"><path class="a" d="M308.078,342.966H303.6l-.964,2.148h-.885l3.676-8.041h.838l3.676,8.041h-.9Zm-.31-.689-1.93-4.319-1.93,4.319Z" transform="translate(-301.544 -336.942)"/><path class="a" d="M309.57,344.878h-1.186l-.965-2.148H303.11l-.965,2.148H300.97l3.8-8.3h1.008Zm-1.015-.263h.605l-3.556-7.777h-.669l-3.555,7.777h.595l.964-2.148h4.65Zm-1.157-2.574h-4.266l2.133-4.773Zm-3.859-.264h3.452l-1.726-3.864Z" transform="translate(-300.97 -336.574)"/></g><g transform="translate(78.898 257.641)"><path class="a" d="M308.078,342.966H303.6l-.964,2.148h-.885l3.676-8.041h.838l3.676,8.041h-.9Zm-.31-.689-1.93-4.319-1.93,4.319Z" transform="translate(-301.134 -336.679)"/><path class="a" d="M308.834,344.405h-1.767l-.965-2.148h-3.968l-.964,2.148h-1.756l4.037-8.831H304.8Zm-1.255-.79h.025l-1.389-3.038Zm-6.935,0h.014l.757-1.686Zm2.154-2.837h2.64l-1.32-2.955Z" transform="translate(-299.414 -335.574)"/></g><g transform="translate(87.032 257.905)"><path class="a" d="M335.228,342.335v2.78h-.838v-2.78l-3.216-5.261h.908l2.757,4.514,2.757-4.514h.85Z" transform="translate(-330.939 -336.942)"/><path class="a" d="M334.7,344.878h-1.1V342l-3.32-5.429H331.5l2.683,4.393,2.683-4.393h1.159L334.7,342Zm-.838-.264h.574v-2.685l3.113-5.092h-.541l-2.83,4.635-2.831-4.635h-.6l3.113,5.092Z" transform="translate(-330.282 -336.574)"/></g><g transform="translate(86.562 257.641)"><path class="a" d="M335.228,342.335v2.78h-.838v-2.78l-3.216-5.261h.908l2.757,4.514,2.757-4.514h.85Z" transform="translate(-330.469 -336.679)"/><path class="a" d="M333.654,344.4h-1.628v-3.064l-3.526-5.767h1.834l2.535,4.151,2.535-4.151h1.777l-3.526,5.767Zm-.838-.791h.047v-2.381l-.047-.078Z" transform="translate(-328.499 -335.574)"/></g><g transform="translate(93.897 257.905)"><path class="a" d="M363.439,342.966h-4.48l-.965,2.148h-.885l3.676-8.041h.838l3.676,8.041h-.9Zm-.31-.689-1.93-4.319-1.93,4.319Z" transform="translate(-356.905 -336.942)"/><path class="a" d="M364.932,344.878h-1.186l-.965-2.148h-4.309l-.965,2.148h-1.175l3.8-8.3h1.008Zm-1.016-.263h.606l-3.555-7.777H360.3l-3.556,7.777h.594l.965-2.148h4.65Zm-1.157-2.574h-4.266l2.133-4.773Zm-3.859-.264h3.453l-1.726-3.864Z" transform="translate(-356.332 -336.574)"/></g><g transform="translate(93.486 257.641)"><path class="a" d="M363.439,342.966h-4.48l-.965,2.148h-.885l3.676-8.041h.838l3.676,8.041h-.9Zm-.31-.689-1.93-4.319-1.93,4.319Z" transform="translate(-356.495 -336.679)"/><path class="a" d="M364.2,344.405h-1.767l-.965-2.148H357.5l-.965,2.148h-1.756l4.037-8.831h1.346Zm-1.255-.79h.025l-1.389-3.038Zm-6.935,0h.014l.769-1.711Zm2.154-2.837h2.64l-1.32-2.955Z" transform="translate(-354.775 -335.574)"/></g><g transform="translate(103.492 257.905)"><path class="a" d="M398.738,345.115,396.9,342.53a5.835,5.835,0,0,1-.643.034H394.1v2.55h-.85v-8.041h3.01a3.633,3.633,0,0,1,2.412.735,2.5,2.5,0,0,1,.873,2.022,2.493,2.493,0,0,1-1.838,2.527l1.965,2.757Zm-.678-3.8a2.074,2.074,0,0,0,0-2.981,2.8,2.8,0,0,0-1.826-.523H394.1v4.032h2.136a2.777,2.777,0,0,0,1.826-.529" transform="translate(-393.115 -336.942)"/><path class="a" d="M399.556,344.878H398.3l-1.832-2.578c-.188.018-.383.027-.581.027h-2.028v2.55h-1.114v-8.3h3.141a3.776,3.776,0,0,1,2.5.766,2.639,2.639,0,0,1,.92,2.123,2.753,2.753,0,0,1-.5,1.669,2.72,2.72,0,0,1-1.259.924Zm-1.119-.263h.607l-1.92-2.7.171-.055a2.362,2.362,0,0,0,1.747-2.4,2.357,2.357,0,0,0-.826-1.921,3.522,3.522,0,0,0-2.328-.7H393.01v7.777h.587v-2.55h2.291a5.728,5.728,0,0,0,.629-.034l.077-.008Zm-2.572-3.01H393.6v-4.3h2.268a2.936,2.936,0,0,1,1.91.553,2.2,2.2,0,0,1,0,3.183A2.914,2.914,0,0,1,395.865,341.6Zm-2-.263h2a2.663,2.663,0,0,0,1.742-.5h0a1.944,1.944,0,0,0,0-2.778,2.69,2.69,0,0,0-1.742-.492h-2Z" transform="translate(-392.747 -336.574)"/></g><g transform="translate(103.229 257.641)"><path class="a" d="M398.738,345.115,396.9,342.53a5.835,5.835,0,0,1-.643.034H394.1v2.55h-.85v-8.041h3.01a3.633,3.633,0,0,1,2.412.735,2.5,2.5,0,0,1,.873,2.022,2.493,2.493,0,0,1-1.838,2.527l1.965,2.757Zm-.678-3.8a2.074,2.074,0,0,0,0-2.981,2.8,2.8,0,0,0-1.826-.523H394.1v4.032h2.136A2.777,2.777,0,0,0,398.06,341.312Z" transform="translate(-392.852 -336.679)"/><path class="a" d="M399.331,344.405h-1.9l-1.824-2.566c-.148.01-.3.016-.453.016h-1.764v2.55h-1.641v-8.831h3.4a4.029,4.029,0,0,1,2.667.828,2.892,2.892,0,0,1,1.013,2.324,3.011,3.011,0,0,1-.553,1.825,2.882,2.882,0,0,1-1.068.88Zm-6.793-.79h.06v-7.25h-.06Zm4.671-3.1-.034.028a2.006,2.006,0,0,0,.468-.457,2.21,2.21,0,0,0,.4-1.357,2.108,2.108,0,0,0-.732-1.719l-.066-.054a2.471,2.471,0,0,1-.035,3.558Zm-3.821-.17h1.741a2.419,2.419,0,0,0,1.573-.437h0a1.683,1.683,0,0,0,0-2.373,2.442,2.442,0,0,0-1.574-.432h-1.741Z" transform="translate(-391.747 -335.574)"/></g><g transform="translate(111.797 257.905)"><rect class="a" width="0.85" height="8.041" transform="translate(0.132 0.132)"/><path class="a" d="M425.377,344.878h-1.114v-8.3h1.114Zm-.85-.263h.587v-7.777h-.587Z" transform="translate(-424.263 -336.574)"/></g><g transform="translate(111.534 257.641)"><rect class="a" width="0.85" height="8.041" transform="translate(0.395 0.395)"/><path class="a" d="M424.9,344.405h-1.641v-8.831H424.9Zm-.85-.79h.06v-7.25h-.06Z" transform="translate(-423.263 -335.574)"/></g><g transform="translate(114.002 257.905)"><path class="a" d="M435.957,337.809h-2.826v-.735h6.5v.735h-2.826v7.306h-.85Z" transform="translate(-433 -336.942)"/><path class="a" d="M436.571,344.878h-1.114v-7.306h-2.826v-1H439.4v1h-2.825Zm-.85-.263h.587v-7.306h2.825v-.471H432.9v.471h2.826Z" transform="translate(-432.632 -336.574)"/></g><g transform="translate(113.739 257.641)"><path class="a" d="M435.957,337.809h-2.826v-.735h6.5v.735h-2.826v7.306h-.85Z" transform="translate(-432.736 -336.679)"/><path class="a" d="M436.1,344.405h-1.641V337.1h-2.826v-1.525h7.292V337.1H436.1Zm-.85-.79h.06v-7.25h-.06Z" transform="translate(-431.632 -335.574)"/></g><g transform="translate(121.859 257.905)"><path class="a" d="M468.634,344.379v.735h-5.686v-8.041h5.514v.735H463.8v2.86h4.158v.724H463.8v2.986Z" transform="translate(-462.816 -336.942)"/><path class="a" d="M468.4,344.878h-5.949v-8.3h5.777v1h-4.664v2.6h4.158v.987h-4.158v2.723H468.4Zm-5.686-.264h5.422v-.472H463.3v-3.25h4.158v-.46H463.3v-3.124h4.664v-.471h-5.25Z" transform="translate(-462.448 -336.574)"/></g><g transform="translate(121.596 257.641)"><path class="a" d="M468.634,344.379v.735h-5.686v-8.041h5.514v.735H463.8v2.86h4.158v.724H463.8v2.986Z" transform="translate(-462.553 -336.679)"/><path class="a" d="M467.924,344.4h-6.476v-8.831h6.3V337.1h-4.664v2.07h4.158v1.514h-4.158v2.2h4.836Zm-5.686-.791h.06v-7.25h-.06Z" transform="translate(-461.448 -335.574)"/></g><g transform="translate(129.544 257.905)"><path class="a" d="M497.8,344.379v.735H492.11v-8.041h5.514v.735H492.96v2.86h4.158v.724H492.96v2.986Z" transform="translate(-491.978 -336.942)"/><path class="a" d="M497.559,344.878H491.61v-8.3h5.777v1h-4.664v2.6h4.158v.987h-4.158v2.723h4.836Zm-5.686-.264H497.3v-.472H492.46v-3.25h4.158v-.46H492.46v-3.124h4.664v-.471h-5.25Z" transform="translate(-491.61 -336.574)"/></g><g transform="translate(129.28 257.641)"><path class="a" d="M497.8,344.379v.735H492.11v-8.041h5.514v.735H492.96v2.86h4.158v.724H492.96v2.986Z" transform="translate(-491.715 -336.679)"/><path class="a" d="M497.086,344.4H490.61v-8.831h6.3V337.1h-4.664v2.07h4.158v1.514h-4.158v2.2h4.836Zm-5.686-.791h.06v-7.25h-.06Z" transform="translate(-490.61 -335.574)"/></g><g transform="translate(72.532 245.667)"><path class="a" d="M286.085,292.207h-1.621q-2.863,0-2.863.37,0,.259.862.306.463.019,1.575.12.88.1.88.621a2.862,2.862,0,0,1-1.149,2.529,7.433,7.433,0,0,1-4.095.852,6.354,6.354,0,0,1-3.168-.676,2.262,2.262,0,0,1-1.251-2.056,5.216,5.216,0,0,1,.593-2.279q.241-.472,1.121-1.862l.37.185q-.352.593-.7,1.2a3.826,3.826,0,0,0-.519,1.667,1.868,1.868,0,0,0,1.186,1.732,7,7,0,0,0,3.1.565,11.8,11.8,0,0,0,2.344-.213q1.232-.25,1.232-.676,0-.259-.6-.315-.482-.028-1.482-.093-1.084-.065-1.084-.611a2.586,2.586,0,0,1,1.38-2.418,4.528,4.528,0,0,1,2.27-.556h1.621Zm-5.753,5.938-.843.8-1.075-.658.862-.871Zm1.918,0-.862.8-1.037-.658.834-.871Z" transform="translate(-275.255 -290.132)"/></g><g transform="translate(82.713 237.802)"><path class="a" d="M325.926,270.224H313.892v-1.612H325.25a4.2,4.2,0,0,0-.259-1.667,5.386,5.386,0,0,0-.871-1.149l.723-1.51a5.155,5.155,0,0,1,.834,1.325,7.886,7.886,0,0,1,.25,2.353Zm-5.364-8.319-.7,1.343-1.5-.778.685-1.343Zm2.131-.834-.723,1.334-1.5-.8.695-1.325Z" transform="translate(-313.892 -260.284)"/></g><g transform="translate(96.491 242.304)"><path class="a" d="M374.765,282.808a4.223,4.223,0,0,1-1.76,3.039,4.653,4.653,0,0,1-2.77,1.4,6.7,6.7,0,0,1-2.066-.389q-.991-.361-1.992-.732l.158-.37a18.1,18.1,0,0,0,2.474.37,5.462,5.462,0,0,0,3.576-1.565A4.1,4.1,0,0,0,374.1,281.7a4.461,4.461,0,0,0-1.39-2.872l.528-1.455a4.245,4.245,0,0,1,1.529,3.187Z" transform="translate(-366.177 -277.37)"/></g><g transform="translate(108.334 236.412)"><path class="a" d="M415.3,266.341H414q-1.158,0-1.519-1.853a24.273,24.273,0,0,1-.324-3.224q-.1-2.149-.213-2.779a2.9,2.9,0,0,0-.824-1.677l1.139-1.8a15.832,15.832,0,0,1,.6,4.048q.092,1.983.176,3.965a2.756,2.756,0,0,0,.408,1.315.707.707,0,0,0,.556.389h1.3Z" transform="translate(-411.119 -255.011)"/></g><g transform="translate(111.863 241.804)"><path class="a" d="M436.547,281.41H424.513V279.8h11.358a4.2,4.2,0,0,0-.259-1.668,5.389,5.389,0,0,0-.871-1.149l.723-1.51a5.153,5.153,0,0,1,.834,1.325,7.9,7.9,0,0,1,.25,2.353ZM434.37,284.1l-.7,1.343-1.5-.778.685-1.343Zm2.131-.834-.723,1.334-1.5-.8.695-1.325Z" transform="translate(-424.513 -275.472)"/></g><g transform="translate(123.248 242.851)"><path class="a" d="M479.754,284.336h-.787a2.849,2.849,0,0,1-1.908-.621,3.25,3.25,0,0,1-2.057.621h-.991a3.477,3.477,0,0,1-1.742-.584,2.643,2.643,0,0,1-.769.445,4.221,4.221,0,0,1-1.251.139H467.72v-1.612h2.529a3.168,3.168,0,0,0,1.075-.13.839.839,0,0,0,.537-.852,5.332,5.332,0,0,0-.13-1.139l.38-.556a7.7,7.7,0,0,0,.723,1.8,1.594,1.594,0,0,0,1.371.88h1.01q1.4,0,1.4-.982a5.346,5.346,0,0,0-.139-1.139l.389-.556q.065.306.195.871.426,1.779,1.668,1.779a.479.479,0,0,0,.537-.547,3.235,3.235,0,0,0-.834-1.7l.6-1.01a4.188,4.188,0,0,1,.519.991,5.556,5.556,0,0,1,.2,1.677Z" transform="translate(-467.72 -279.445)"/></g></g></svg>