<svg xmlns="http://www.w3.org/2000/svg" width="34.459" height="28.5" viewBox="0 0 34.459 28.5"><defs><style>.a{isolation:isolate;}.b{fill:#fff;}</style></defs><g class="a" transform="translate(396.493 -323.616)"><path class="b" d="M-320.289,385.1a6.089,6.089,0,0,1,1.236,3.539c.05.836.056,1.675.061,2.513.007,1.423,0,2.846-.006,4.269,0,.673-.155.82-.832.822-.7,0-1.4,0-2.105,0-.52,0-.684-.162-.7-.681-.013-.418,0-.836,0-1.277h-15.51c0,.4,0,.783,0,1.17,0,.618-.169.788-.775.79q-1.1,0-2.193,0c-.478,0-.67-.182-.663-.647q.054-3.786.12-7.572a4.528,4.528,0,0,1,.794-2.41c.105-.162.2-.328.323-.522-.334-.112-.637-.211-.939-.316-.542-.188-.753-.491-.682-.97a.912.912,0,0,1,.981-.841c.487-.006.975,0,1.462.013a.812.812,0,0,0,.789-.442q.645-1.078,1.324-2.136a3.27,3.27,0,0,1,2.919-1.582q4.27,0,8.539,0a3.354,3.354,0,0,1,2.976,1.6c.465.708.909,1.43,1.347,2.155a.746.746,0,0,0,.7.385c.507,0,1.014,0,1.52.01a.91.91,0,0,1,.9.577.815.815,0,0,1-.489,1.184C-319.535,384.866-319.89,384.97-320.289,385.1Zm-10.074-.011v.013q3.857,0,7.715,0c.255,0,.558.049.71-.228s-.055-.5-.189-.721c-.633-1.028-1.281-2.047-1.91-3.076a2.367,2.367,0,0,0-2.161-1.2q-4.194,0-8.387,0a2.4,2.4,0,0,0-2.186,1.215c-.6.98-1.209,1.953-1.808,2.934-.15.245-.388.515-.231.8s.516.265.82.265Zm7.624,4.841v0c.361,0,.722.014,1.082,0a1.246,1.246,0,0,0,1.166-.829,1.21,1.21,0,0,0-.247-1.353,1.189,1.189,0,0,0-1.349-.371q-1.023.346-2.033.726a.912.912,0,0,0-.627,1.083.952.952,0,0,0,.956.747C-323.441,389.943-323.09,389.936-322.739,389.936Zm-15.334,0c.331,0,.662,0,.993,0a.977.977,0,0,0,1.044-.787.946.946,0,0,0-.7-1.073c-.638-.236-1.284-.453-1.925-.68a1.21,1.21,0,0,0-1.381.34,1.221,1.221,0,0,0-.243,1.405,1.23,1.23,0,0,0,1.188.792C-338.755,389.945-338.414,389.936-338.073,389.936Zm7.684,2.936h2.687c.227,0,.446-.032.488-.306a2.707,2.707,0,0,0,.034-.61c-.03-.411-.163-.527-.575-.528q-2.643,0-5.286,0c-.434,0-.59.164-.6.606a2.625,2.625,0,0,0,.008.292c.037.435.145.542.587.545C-332.161,392.876-331.275,392.872-330.389,392.872Z" transform="translate(-43.425 -44.134)"/><path class="b" d="M-392.467,373.428c0,.438.006.836,0,1.234-.012.654-.17.811-.818.814-.711,0-1.423.005-2.134,0-.49,0-.7-.208-.7-.7.031-2.465.056-4.93.116-7.4a4.878,4.878,0,0,1,.871-2.629c.09-.134.166-.278.268-.449-.328-.107-.623-.2-.915-.3-.564-.191-.781-.51-.7-1.016a.9.9,0,0,1,.99-.791c.448,0,.9-.006,1.345,0a.989.989,0,0,0,.922-.506c.388-.641.8-1.27,1.186-1.91a3.4,3.4,0,0,1,3.1-1.751q4.239.009,8.478,0a3.356,3.356,0,0,1,3.047,1.728c.3.488.6.972.926,1.5a10.089,10.089,0,0,1-1.06-.012.627.627,0,0,1-.361-.258c-.2-.265-.355-.559-.54-.833a2.224,2.224,0,0,0-1.949-1.038q-4.312,0-8.624,0A2.2,2.2,0,0,0-391,360.189c-.662,1.044-1.332,2.084-2,3.127-.148.233-.314.5-.172.761s.474.275.757.273q4.78-.017,9.56-.04h.423c-.239.366-.429.691-.657.986a.55.55,0,0,1-.37.126c-.457.024-.917,0-1.372.04a1.717,1.717,0,0,0-1.616,1.405,1.7,1.7,0,0,0,.792,1.963l.25.163c-.163.512-.319,1.02-.494,1.522-.02.059-.146.111-.224.113-.419.013-.838,0-1.257.014-.434.017-.519.1-.539.518-.046.979.085.91.836.916.319,0,.638,0,.985,0l-.066,1.352Zm.135-4.257c.376-.021.815-.022,1.247-.079a.818.818,0,0,0,.729-.731.847.847,0,0,0-.4-.9,2.766,2.766,0,0,0-.526-.247c-.481-.183-.983-.321-1.446-.541a1.336,1.336,0,0,0-1.522.185,1.148,1.148,0,0,0-.43,1.273,1.165,1.165,0,0,0,1,.97C-393.252,369.15-392.822,369.147-392.332,369.171Z" transform="translate(0 -27.511)"/><path class="b" d="M-306.408,326.014l-1.77,4.731,3.717.266a.409.409,0,0,1-.047.117c-.741.774-1.487,1.542-2.224,2.32a1.162,1.162,0,0,1-.924.348c-.25,0-.5,0-.75,0l-.055-.106,1.754-1.748-2.991-.221,1.083-2.919-.041-.051-3.075,1.957-.474-3.6-.066-.016-1.508,2.65-2.126-1.989-.191,1.9-1.055-.08.336-4.241,2.833,2.564,2.423-4.281c.231,1.793.451,3.5.679,5.263Z" transform="translate(-63.432)"/></g></svg>