<svg xmlns="http://www.w3.org/2000/svg" width="32" height="30.112" viewBox="0 0 32 30.112"><defs><style>.a{isolation:isolate;}.b{fill:#fff;}</style></defs><g class="a" transform="translate(464.252 -536.347)"><path class="b" d="M-448.61,595.091c.064,1.444-.851,1.623-2.007,1.617-2.94-.016-2.941.008-2.94-2.982,0-2.125-.1-4.259.059-6.372a7.363,7.363,0,0,1,1.092-2.442c.244-.482.567-.923.834-1.394,1.1-1.951,2.214-3.9,3.3-5.863a2.194,2.194,0,0,1,2.089-1.22q7.3.007,14.592-.005a2.267,2.267,0,0,1,2.167,1.321c1.154,2.219,2.287,4.448,3.433,6.672a.417.417,0,0,0,.165.172c1.827.942,1.625,2.643,1.617,4.28-.01,2.044.009,4.087-.007,6.131-.011,1.37-.3,1.651-1.653,1.687-.449.012-.9.006-1.349,0-1.529-.014-1.657-.115-1.979-1.6Zm20.571-11.6c-1-1.766-1.918-3.431-2.9-5.056a1.228,1.228,0,0,0-.911-.452q-7.044-.042-14.089,0a1.1,1.1,0,0,0-.824.4c-.988,1.66-1.92,3.352-2.915,5.114Zm-17.626,5.624-.024.478a4.989,4.989,0,0,0,1.171.3c3.792.022,7.585.027,11.377-.008a3.389,3.389,0,0,0,1.122-.459c-.389-.176-.776-.5-1.166-.5-3.751-.039-7.5-.03-11.255-.013A7.313,7.313,0,0,0-445.666,589.11Zm-3.642-1.839a2.111,2.111,0,0,0-2.039,1.9,2.035,2.035,0,0,0,2.037,2,1.894,1.894,0,0,0,1.919-1.937A1.924,1.924,0,0,0-449.308,587.272Zm20.93,3.9a2.032,2.032,0,0,0,1.973-1.937,2.08,2.08,0,0,0-1.969-1.961,2.042,2.042,0,0,0-2.026,2.019A2.024,2.024,0,0,0-428.378,591.17Z" transform="translate(-8.048 -30.249)"/><path class="b" d="M-460.281,540.026c1.782,2.216,3.6,4.46,3.568,7.587a3.444,3.444,0,0,1-2.235,3.346,4.333,4.333,0,0,1-4.345-.806,3.463,3.463,0,0,1-.593-3.976,14.539,14.539,0,0,1,.949-1.706C-462.074,543.016-461.2,541.566-460.281,540.026Z" transform="translate(0 -2.776)"/><path class="b" d="M-431.928,536.347a13.472,13.472,0,0,1,1.3,2.788,1.961,1.961,0,0,1-.734,1.7,1.928,1.928,0,0,1-1.827-.239,2.147,2.147,0,0,1-.168-1.825A13.619,13.619,0,0,1-431.928,536.347Z" transform="translate(-23.222)"/></g></svg>