<svg xmlns="http://www.w3.org/2000/svg" width="31.667" height="31.185" viewBox="0 0 31.667 31.185"><defs><style>.a{isolation:isolate;}.b{fill:#fff;}</style></defs><g class="a" transform="translate(197.169 -218.741)"><path class="b" d="M-94.164,218.741V221c-.853.075-1.687.184-2.523.214a2.769,2.769,0,0,0-2.639,1.807c-.742,1.856-1.341,3.769-2.056,5.817h7.19v15.255H-98.23c0,1.539,0,2.974,0,4.409,0,1.285-.134,1.416-1.393,1.418-1.571,0-3.142-.014-4.712.007-.763.01-1.088-.344-1.084-1.082.008-1.535,0-3.07,0-4.747-.724,0-1.371.013-2.018,0a1.614,1.614,0,0,1-1.785-1.819c-.013-1.571-.075-3.146.028-4.71a7.388,7.388,0,0,1,.669-2.217c.7-1.711,1.511-3.378,2.164-5.106a1.7,1.7,0,0,1,1.736-1.273c.718.007.943-.32,1.122-.957.432-1.537.951-3.05,1.455-4.567.9-2.713,2.629-4.619,5.714-4.541A21.727,21.727,0,0,0-94.164,218.741ZM-101.4,237.4v.01c.6,0,1.2.04,1.788-.008a2.4,2.4,0,0,0,2.277-2.424,2.338,2.338,0,0,0-2.3-2.287c-1.158-.056-2.323-.052-3.481.007A2.365,2.365,0,0,0-105.4,235a2.433,2.433,0,0,0,2.217,2.393C-102.593,237.453-101.992,237.4-101.4,237.4Z" transform="translate(-71.338)"/><path class="b" d="M-188.333,236.408l-3.491-1.519,2.889-6.571-.79-.382-2.946,6.619-1.085-.529c.638-1.456,1.287-2.871,1.876-4.31.263-.643.892-1.245.367-2.059-.064-.1.078-.349.153-.517,1.064-2.411,2.159-4.809,3.185-7.236.329-.778.714-1.013,1.5-.64,1.076.51,2.214.9,3.261,1.459a7.874,7.874,0,0,1,1.431,1.316Z" transform="translate(-2.769 -0.283)"/><path class="b" d="M-135.448,229.2c.374-.792.768-1.575,1.117-2.377a1.073,1.073,0,0,1,1.661-.618c.68.32,1.384.591,2.065.909.937.437,1.065.766.66,1.691q-2.474,5.641-4.961,11.277c-.683,1.547-1.393,3.082-2.071,4.631a1.03,1.03,0,0,1-1.513.632c-.81-.337-1.623-.67-2.42-1.036a1,1,0,0,1-.524-1.473c.266-.63.493-1.277.736-1.917l3-6.671,2.11-4.837Z" transform="translate(-45.115 -5.91)"/><path class="b" d="M-142.426,238.807l-.138.209-2.11,4.837-3,6.672-.276.215c-.7-2.256.568-4.121,1.364-6.083l-.234-.081c-.227.5-.494.985-.671,1.5-.251.734-.654.931-1.353.562-.408-.215-.848-.368-1.325-.57l2.914-6.577a2.424,2.424,0,0,1,.359.058c1.927.689,1.925.689,1.145,2.573a1.976,1.976,0,0,0-.168.786c1.056-1.807,1.42-4.086,3.652-5.046Z" transform="translate(-38.137 -15.515)"/><path class="b" d="M-197.169,312.936c.172-.21.3-.526.523-.612a1.78,1.78,0,0,0,1.216-1.9c-.027-1.38.016-2.762-.026-4.142a1.114,1.114,0,0,0-.41-.811c-1.448-.871-1.469-.886-.651-2.414a3.443,3.443,0,0,1,.24-.337l.773.3c-.343,1.279-.343,1.279.314,1.579.106-.174.218-.352.323-.534s.205-.372.342-.621l2.764,1.17c-.348.644-.531,1.455-1.021,1.744-.42.247-1.192-.1-1.888-.2,0,1.5.012,3.033,0,4.564C-194.687,312.1-195.491,312.94-197.169,312.936Z" transform="translate(0 -68.142)"/></g></svg>