<svg xmlns="http://www.w3.org/2000/svg" width="31.667" height="35.766" viewBox="0 0 31.667 35.766"><defs><style>.a{isolation:isolate;}.b{fill:#fff;}</style></defs><g class="a" transform="translate(193.756 -413.603)"><path class="b" d="M-185.558,469.808c-.663-.285-1.291-.555-1.918-.827a1.478,1.478,0,0,1-.169-.108c.148-.337.283-.667.437-.989a.241.241,0,0,0-.1-.371c-.219-.131-.424-.285-.635-.428-.5-.339-.5-.338-.96.081-.171.156-.343.31-.549.5l-1.616-1.479c.258-.267.482-.515.725-.743a.316.316,0,0,0,.051-.5c-.269-.349-.517-.716-.755-1.088a.288.288,0,0,0-.43-.121c-.337.151-.684.278-1.069.432l-.8-2c.335-.154.634-.309.945-.429a.3.3,0,0,0,.21-.4c-.08-.41-.125-.827-.215-1.234a.365.365,0,0,0-.259-.216c-.276-.03-.558,0-.835-.021-.087-.007-.24-.1-.241-.154-.016-.739-.011-1.479-.011-2.252h1.323c.143-.534.287-1.035.4-1.543a.341.341,0,0,0-.163-.271c-.317-.166-.65-.3-1.027-.47l.9-2.1c.371.148.7.292,1.037.4a.355.355,0,0,0,.315-.054c.307-.406.588-.831.9-1.278l-.993-.876,1.467-1.6c.3.225.583.426.853.642a.293.293,0,0,0,.426.018c.339-.264.689-.514,1.045-.755a.262.262,0,0,0,.1-.38c-.136-.318-.253-.645-.393-1.006l2-.8c.151.337.3.637.42.949.083.217.2.267.425.219a10.449,10.449,0,0,1,1.135-.176c.257-.026.33-.14.316-.384-.019-.311,0-.625,0-.972h2.422c0,.368.01.736,0,1.1-.008.207.048.315.269.356a11.4,11.4,0,0,1,1.151.277c.221.066.314-.01.394-.2.141-.341.3-.673.468-1.04l2.091.919c-.15.356-.3.68-.418,1.017a.377.377,0,0,0,.076.337c.383.3.788.57,1.221.875l.931-.991,1.6,1.467c-.247.292-.477.579-.724.85a.3.3,0,0,0-.023.449c.3.4.578.812.884,1.248l1.341-.517.808,2c-.327.147-.635.3-.954.424-.2.077-.266.172-.222.39.081.4.139.8.186,1.2.024.206.107.277.312.269.345-.013.691,0,1.058,0v2.418a6.68,6.68,0,0,1-.787-.006c-.328-.039-.448.1-.5.405-.062.377-.181.745-.242,1.122a.387.387,0,0,0,.145.314,8.732,8.732,0,0,0,.787.416c-.38.261-.715.5-1.059.725q-3.955,2.579-7.918,5.146a.5.5,0,0,1-.42.07,3.231,3.231,0,0,0-3.841.476c-.151.132-.271.221-.487.139-.066-.025-.225.073-.277.155C-185.2,469.141-185.37,469.47-185.558,469.808Zm10.868-11.193a7.078,7.078,0,0,0-7.112-7.225c-4.443-.067-7.671,3-7.7,7.209a7.429,7.429,0,0,0,7.442,7.456A7.322,7.322,0,0,0-174.691,458.615Z" transform="translate(0 -25.815)"/><path class="b" d="M-155.785,508.175a2.293,2.293,0,0,1,.069-1.667,3.361,3.361,0,0,1,4.654-1.659c.2.129.32.039.465-.056q4.332-2.829,8.663-5.66c.7-.458,1.388-.934,2.092-1.385a.449.449,0,0,0,.237-.478,3.392,3.392,0,0,1,2.5-3.609,3.332,3.332,0,0,1,2.415.359c-.569.394-1.082.768-1.616,1.109a.664.664,0,0,0-.35.617c0,.429-.057.858-.055,1.287a.456.456,0,0,0,.2.342c.445.225.9.427,1.367.607a.5.5,0,0,0,.375-.08c.591-.367,1.172-.751,1.783-1.146a2.08,2.08,0,0,1,.027,1.44,3.335,3.335,0,0,1-4.772,1.9.44.44,0,0,0-.389.024q-3.416,2.192-6.818,4.4c-1.3.849-2.6,1.719-3.9,2.561a.582.582,0,0,0-.323.617,3.01,3.01,0,0,1-.894,2.537,3.343,3.343,0,0,1-3.649.631c.5-.409.973-.812,1.468-1.181a.6.6,0,0,0,.29-.579,5.731,5.731,0,0,1-.035-.938.655.655,0,0,0-.508-.735c-1.749-.7-1.042-.743-2.627.254C-155.341,507.828-155.537,507.992-155.785,508.175Z" transform="translate(-29.238 -61.781)"/><path class="b" d="M-118.639,414.14l1.355.929a6.131,6.131,0,0,0-.409.625.437.437,0,0,0,0,.36c.274.458.565.907.875,1.342a.49.49,0,0,0,.359.163,4.976,4.976,0,0,0,.72-.115l.348,1.519a1.23,1.23,0,0,1-.31.106c-.548.021-.748.337-.79.844a4.877,4.877,0,0,1-.188.921.419.419,0,0,0,.226.57,5.241,5.241,0,0,1,.53.359l-.846,1.243a.991.991,0,0,1-.148-.059c-.614-.391-.609-.384-1.2.014a8.348,8.348,0,0,1-.9.526.328.328,0,0,0-.212.41,6.448,6.448,0,0,1,.059.647l-1.529.272c-.035-.121-.062-.2-.078-.273-.123-.618-.122-.617-.726-.731-.377-.071-.758-.127-1.126-.231a.43.43,0,0,0-.571.23,3.965,3.965,0,0,1-.313.417l-1.368-.925c.051-.1.083-.169.125-.236.379-.6.38-.6-.051-1.173a4.364,4.364,0,0,1-.31-.42c-.248-.431-.546-.736-1.1-.571a.267.267,0,0,1-.23-.125c-.128-.44-.232-.888-.344-1.331.109-.049.151-.084.191-.083.6.02.8-.334.862-.872a5.7,5.7,0,0,1,.229-1.017.364.364,0,0,0-.182-.49c-.178-.1-.337-.241-.527-.38l.853-1.258a5.8,5.8,0,0,1,.569.336.387.387,0,0,0,.528-.012,12.684,12.684,0,0,1,1.106-.727.49.49,0,0,0,.262-.6c-.034-.166-.044-.337-.069-.545.481-.072.924-.152,1.371-.193a.348.348,0,0,1,.264.216c.063.56.391.73.912.744a2.677,2.677,0,0,1,.875.209.422.422,0,0,0,.6-.212A4.756,4.756,0,0,1-118.639,414.14Zm.493,5.083a3.014,3.014,0,0,0-2.995-2.959,2.882,2.882,0,0,0-2.872,2.887,2.949,2.949,0,0,0,2.9,2.965A2.962,2.962,0,0,0-118.145,419.223Z" transform="translate(-51.731)"/></g></svg>