<svg xmlns="http://www.w3.org/2000/svg" width="40" height="15.989" viewBox="0 0 40 15.989"><defs><style>.a{isolation:isolate;}.b{fill:#fff;}</style></defs><g class="a" transform="translate(370.679 -102.429)"><path class="b" d="M-369.266,102.429c2.825,1.064,5.519,2.031,8.159,3.128.391.163.524.945.844,1.572h3.712v-1.934l-1.791-.134v-2.253h6.348c.043.708.084,1.4.131,2.179l-2.126.1v2.054c1.357,0,2.7.041,4.038-.016a1.753,1.753,0,0,1,1.732.774c.4.621.894.639,1.569.428,4.209-1.315,8.437-2.571,12.646-3.885a1.323,1.323,0,0,1,1.546.327c.534.551,1.139,1.034,1.78,1.606l-1.558,1.7c-.3-.173-.573-.32-.836-.484a2.3,2.3,0,0,0-3.378.665c-2.054,2.772-4.132,5.527-6.142,8.33a3.973,3.973,0,0,1-3.583,1.826c-4.838-.071-9.677-.024-14.516-.026-1.789,0-2.46-.659-2.481-2.43-.009-.71.01-1.42,0-2.129a2.022,2.022,0,0,0-1.59-2.237c-1.533-.591-3.073-1.163-4.6-1.761-1.19-.466-1.5-1.013-1.208-2.244C-370.177,105.9-369.727,104.232-369.266,102.429Zm6.244,7.42c0-.872.043-1.609-.025-2.336a.966.966,0,0,0-.518-.653c-1.129-.466-2.291-.853-3.429-1.3-.635-.249-.984-.1-1.09.6a5.338,5.338,0,0,0-.222,1.031c.018.294.174.749.388.836C-366.344,108.659-364.74,109.219-363.022,109.849Z"/><path class="b" d="M-182.762,140.2c.4.794.783,1.583,1.2,2.353a2.719,2.719,0,0,1-.509,3.348,1.508,1.508,0,0,1-2.345-.3C-185.721,143.681-184.2,140.791-182.762,140.2Z" transform="translate(-149.807 -30.461)"/></g></svg>