<svg xmlns="http://www.w3.org/2000/svg" width="30.157" height="30.091" viewBox="0 0 30.157 30.091"><defs><style>.a{isolation:isolate;}.b{fill:#fff;}</style></defs><g class="a" transform="translate(296.894 -607.175)"><path class="b" d="M-281.875,637.263h-10.289c-.2,0-.4.011-.605,0a1,1,0,0,1-1.059-.961.968.968,0,0,1,1.021-1.064c.931-.047,1.868.017,2.8-.044a1.511,1.511,0,0,0,.973-.429.9.9,0,0,0-.6-1.444,2.4,2.4,0,0,0-.828-.023,2.672,2.672,0,0,1-2.7-1.2c-3.55-4.407-4.7-9.343-2.859-14.712a14.333,14.333,0,0,1,11.46-9.926,14.907,14.907,0,0,1,17.623,12.4,14.569,14.569,0,0,1-4.3,13.035,1.632,1.632,0,0,1-.914.377,11.063,11.063,0,0,1-1.511.017.952.952,0,0,0-1.075.924c-.06.56.4.973,1.082.993.882.026,1.765,0,2.647.024.82.02,1.243.375,1.248,1,.005.654-.455,1.031-1.3,1.032Q-276.466,637.267-281.875,637.263Zm.084-4.193A10.937,10.937,0,0,0-270.8,622.164,10.919,10.919,0,0,0-281.878,611.2,10.945,10.945,0,0,0-292.8,622.024,10.929,10.929,0,0,0-281.791,633.07Z"/><path class="b" d="M-230.169,671.983l-1.539,1.5c-.628-.677-1.188-1.316-1.786-1.917a5.149,5.149,0,0,0-7.7,0c-.586.587-1.15,1.2-1.828,1.9l-1.374-1.585c.57-.561,1.163-1.136,1.748-1.722,2.347-2.352,2.358-5.26.02-7.594-.586-.586-1.2-1.143-1.879-1.787l1.534-1.493c.685.711,1.314,1.4,1.975,2.045a5.117,5.117,0,0,0,7.316,0c.663-.649,1.311-1.313,2.041-2.046l1.449,1.557c-.635.587-1.3,1.16-1.913,1.776a4.972,4.972,0,0,0,.015,7.485C-231.487,670.712-230.87,671.3-230.169,671.983Zm-5.2-5.621a1.968,1.968,0,0,0-1.964-1.977,1.976,1.976,0,0,0-1.972,1.971,1.944,1.944,0,0,0,1.964,1.967A1.955,1.955,0,0,0-235.371,666.362Z" transform="translate(-44.457 -44.225)"/><path class="b" d="M-223.372,647.613a9.43,9.43,0,0,1,7.947,0,28.623,28.623,0,0,1-2.412,2.148,2.62,2.62,0,0,1-3.179-.021A26.5,26.5,0,0,1-223.372,647.613Z" transform="translate(-62.391 -33.57)"/><path class="b" d="M-256.077,688.544a8.991,8.991,0,0,1,0-7.623C-252.7,683.6-252.34,685.516-256.077,688.544Z" transform="translate(-33.916 -62.581)"/><path class="b" d="M-157.984,680.668a9.024,9.024,0,0,1,0,7.628C-161.314,685.65-161.769,683.741-157.984,680.668Z" transform="translate(-115.614 -62.366)"/><path class="b" d="M-223.283,744.5a26.986,26.986,0,0,1,2.5-2.155,2.747,2.747,0,0,1,3.413.328c.638.566,1.24,1.174,1.858,1.763C-216.628,745.557-220.863,745.87-223.283,744.5Z" transform="translate(-62.467 -114.32)"/></g></svg>