<svg xmlns="http://www.w3.org/2000/svg" xmlns:xlink="http://www.w3.org/1999/xlink" width="49.88" height="49.85" viewBox="0 0 49.88 49.85"><defs><style>.a{fill:url(#a);}.b{filter:url(#k);}.c{filter:url(#h);}.d{filter:url(#e);}.e{filter:url(#b);}</style><linearGradient id="a" x1="0.5" x2="0.5" y2="1" gradientUnits="objectBoundingBox"><stop offset="0" stop-color="#c8325d"/><stop offset="1" stop-color="#921d40"/></linearGradient><filter id="b" x="0" y="11.215" width="49.88" height="38.635" filterUnits="userSpaceOnUse"><feOffset input="SourceAlpha"/><feGaussianBlur stdDeviation="5" result="c"/><feFlood flood-color="#b02850" flood-opacity="0.459"/><feComposite operator="in" in2="c"/><feComposite in="SourceGraphic"/></filter><filter id="e" x="4.328" y="0" width="41.231" height="41.213" filterUnits="userSpaceOnUse"><feOffset input="SourceAlpha"/><feGaussianBlur stdDeviation="5" result="f"/><feFlood flood-color="#b02850" flood-opacity="0.459"/><feComposite operator="in" in2="f"/><feComposite in="SourceGraphic"/></filter><filter id="h" x="13.557" y="11.808" width="33.996" height="32.584" filterUnits="userSpaceOnUse"><feOffset input="SourceAlpha"/><feGaussianBlur stdDeviation="5" result="i"/><feFlood flood-color="#b02850" flood-opacity="0.459"/><feComposite operator="in" in2="i"/><feComposite in="SourceGraphic"/></filter><filter id="k" x="10.695" y="11.226" width="34.394" height="31.774" filterUnits="userSpaceOnUse"><feOffset input="SourceAlpha"/><feGaussianBlur stdDeviation="5" result="l"/><feFlood flood-color="#b02850" flood-opacity="0.459"/><feComposite operator="in" in2="l"/><feComposite in="SourceGraphic"/></filter></defs><g transform="translate(-299.851 -164.772)"><g class="e" transform="matrix(1, 0, 0, 1, 299.85, 164.77)"><path class="a" d="M325.556,240.349c.51,0,1.021.021,1.53-.006a2.212,2.212,0,0,0,1.5-.625,1.813,1.813,0,0,0,.409-.646.349.349,0,0,1,.123-.159q1.942-1.279,3.889-2.55a1.674,1.674,0,0,1,.92-.3.8.8,0,0,1,.8.859,1.578,1.578,0,0,1-.6,1.122,9.182,9.182,0,0,1-.988.731q-2.883,1.872-5.777,3.729c-.226.146-.464.274-.692.417a2.871,2.871,0,0,1-2.826.184c-.628-.276-1.238-.6-1.852-.9q-1.106-.553-2.206-1.117a.95.95,0,0,0-1.052.06c-.348.239-.711.457-1.067.684a.437.437,0,0,1-.7-.2q-1.038-2.257-2.068-4.518a.417.417,0,0,1,.207-.586c1.162-.546,2.329-1.079,3.533-1.527a4.529,4.529,0,0,1,1.837-.236,5.966,5.966,0,0,1,.825.1,2.562,2.562,0,0,1,1.35.84,6.485,6.485,0,0,1,.526.6,1.959,1.959,0,0,0,1.285.768,12.706,12.706,0,0,0,2.34.278,1.9,1.9,0,0,1,.88.188.951.951,0,0,1,.563.967.9.9,0,0,1-.638.848,2.547,2.547,0,0,1-.762.146q-1.263.027-2.526,0a10.123,10.123,0,0,1-1.927-.28c-.174-.037-.347-.081-.521-.117a.426.426,0,0,0-.518.307.42.42,0,0,0,.317.524c.41.1.824.182,1.238.266A10.991,10.991,0,0,0,325.556,240.349Z" transform="translate(-299.85 -208.54)"/></g><g class="d" transform="matrix(1, 0, 0, 1, 299.85, 164.77)"><path class="a" d="M344.857,189.956a1.565,1.565,0,0,1-.254-.116c-.318-.218-.632-.442-.944-.668a.157.157,0,0,0-.188-.021c-.14.07-.292.117-.434.183a.178.178,0,0,0-.093.106c-.07.374-.134.75-.2,1.125a.437.437,0,0,1-.49.418l-1.207,0a.44.44,0,0,1-.469-.4c-.062-.376-.13-.75-.189-1.127a.152.152,0,0,0-.115-.138,3.9,3.9,0,0,1-.412-.171.18.18,0,0,0-.213.015c-.3.214-.605.421-.909.631a.443.443,0,0,1-.644-.058q-.416-.42-.831-.841a.437.437,0,0,1-.046-.644c.213-.3.425-.593.643-.886a.177.177,0,0,0,.019-.212c-.067-.137-.112-.285-.177-.423a.2.2,0,0,0-.117-.1c-.369-.073-.74-.138-1.111-.205a.437.437,0,0,1-.409-.487q0-.61.005-1.22a.432.432,0,0,1,.389-.454q.558-.09,1.116-.177a.161.161,0,0,0,.151-.119,3.854,3.854,0,0,1,.183-.434.155.155,0,0,0-.016-.18c-.215-.3-.426-.612-.637-.92a.43.43,0,0,1,.057-.623q.427-.427.858-.849a.432.432,0,0,1,.625-.044c.3.217.607.434.907.656a.152.152,0,0,0,.179.017c.146-.068.3-.128.448-.182a.131.131,0,0,0,.1-.116q.1-.581.215-1.16a.412.412,0,0,1,.439-.358q.641,0,1.282.007a.421.421,0,0,1,.424.363c.064.384.128.768.186,1.152a.162.162,0,0,0,.125.144c.143.053.285.113.422.179a.143.143,0,0,0,.168-.015c.306-.221.614-.438.923-.655a.437.437,0,0,1,.625.053q.43.433.856.868a.429.429,0,0,1,.044.605c-.22.311-.44.623-.664.931a.155.155,0,0,0-.017.18,4.518,4.518,0,0,1,.177.436.145.145,0,0,0,.131.108c.359.059.718.123,1.078.18a.457.457,0,0,1,.451.528q0,.56-.005,1.12a.451.451,0,0,1-.441.524c-.371.065-.743.126-1.113.195a.18.18,0,0,0-.11.09c-.07.145-.125.3-.194.443a.145.145,0,0,0,.017.169c.224.309.443.621.664.932a.431.431,0,0,1-.053.623c-.288.286-.579.57-.867.857A.56.56,0,0,1,344.857,189.956Zm-3.187-2.829a1.732,1.732,0,1,0-1.736-1.723A1.72,1.72,0,0,0,341.67,187.127Z" transform="translate(-316.74 -164.77)"/></g><g class="c" transform="matrix(1, 0, 0, 1, 299.85, 164.77)"><path class="a" d="M385.313,238.045l-3.361,2.2a1.881,1.881,0,0,0-.635-.941c.035-.026.062-.048.091-.067q1.072-.665,2.145-1.328a1.522,1.522,0,0,1,1.3-.176A.956.956,0,0,1,385.313,238.045Z" transform="translate(-352.76 -210.85)"/></g><g class="b" transform="matrix(1, 0, 0, 1, 299.85, 164.77)"><path class="a" d="M367.284,236.424c.04-.026.08-.053.12-.078.595-.37,1.184-.748,1.786-1.106a2.592,2.592,0,0,1,2.072-.346,4.022,4.022,0,0,1,.417.165l-1.463.9c-.31.192-.618.387-.931.573a.383.383,0,0,1-.205.043c-.376-.02-.752-.046-1.128-.072-.221-.016-.441-.036-.661-.054Z" transform="translate(-341.59 -208.58)"/></g></g></svg>