<svg xmlns="http://www.w3.org/2000/svg" width="12.077" height="11.525" viewBox="0 0 12.077 11.525"><defs><style>.a{fill:#f2ca29;}</style></defs><g transform="translate(0 0)"><path class="a" d="M324.9,215.064a.83.83,0,0,0-.671-.565l-3.17-.461-1.418-2.87a.863.863,0,0,0-1.488,0l-1.418,2.87-3.162.461a.83.83,0,0,0-.459,1.416l2.292,2.229-.54,3.154a.83.83,0,0,0,1.205.875l2.825-1.49,2.834,1.49a.828.828,0,0,0,.386.1.842.842,0,0,0,.49-.158.833.833,0,0,0,.33-.813l-.54-3.154,2.292-2.229A.829.829,0,0,0,324.9,215.064Z" transform="translate(-312.866 -210.742)"/></g></svg>